<svg xmlns="http://www.w3.org/2000/svg" height="800" width="1200" version="1.0" viewBox="-71.2719 -54.41375 617.6898 326.4825"><defs><linearGradient spreadMethod="pad" gradientTransform="matrix(.40321 .02722 -.0264 .39134 -27.655 -17.06)" gradientUnits="userSpaceOnUse" id="c" y2="427.199" x2="247.474" y1="391.294" x1="222.515"><stop offset="0" stop-color="#ffc222"/><stop offset=".91" stop-color="#1468b3"/><stop offset=".91" stop-color="#1468b3"/><stop offset="1" stop-color="#1468b3"/></linearGradient><linearGradient spreadMethod="pad" gradientTransform="translate(-38.59 -14.056) scale(.39699)" gradientUnits="userSpaceOnUse" id="d" y2="411.486" x2="278.805" y1="411.486" x1="191.543"><stop offset="0" stop-color="#ffc222"/><stop offset=".91" stop-color="#1468b3"/><stop offset=".91" stop-color="#1468b3"/><stop offset="1" stop-color="#1468b3"/></linearGradient><clipPath id="b"><path d="M37.4 124.116h84.835v38.955H37.4z"/></clipPath><clipPath id="e"><path d="M37.4 124.116h84.835v38.955H37.4z"/></clipPath><radialGradient spreadMethod="pad" gradientTransform="rotate(4.384 230.82 -353.602) scale(.39699)" gradientUnits="userSpaceOnUse" id="a" fy="387.328" fx="212.786" r="6.539" cy="387.328" cx="212.786"><stop offset="0" stop-color="#ffc222"/><stop offset=".955" stop-color="#1468b3"/><stop offset="1" stop-color="#1468b3"/></radialGradient></defs><path d="M45.741 142.115a1.895 1.895 0 01-.772-2.565 1.894 1.894 0 113.337 1.792 1.893 1.893 0 01-2.565.773" fill="url(#a)" transform="matrix(5.60263 0 0 -5.60263 -209.691 913.033)"/><g clip-path="url(#b)" transform="matrix(5.60263 0 0 -5.60263 -209.691 913.033)"><path d="M53.034 134.217h.664l1.503-2.742h.008v2.742h.489v-3.405h-.624l-1.541 2.799h-.011v-2.8h-.488zm5.322 0h.513l1.44-3.405h-.533l-.346.858h-1.669l-.346-.858h-.512l1.453 3.405m.24-.46l-.678-1.686h1.355zm3.239.031h-1.058v.429h2.604v-.43h-1.058v-2.975h-.488zm2.751.429h.488v-3.405h-.488zm3.488.058c1.034 0 1.64-.751 1.64-1.76 0-1.035-.6-1.762-1.64-1.762-1.039 0-1.639.727-1.639 1.762 0 1.009.605 1.76 1.64 1.76m0-3.093c.784 0 1.121.654 1.121 1.333 0 .692-.37 1.336-1.122 1.33-.75.006-1.122-.638-1.122-1.33 0-.68.336-1.333 1.122-1.333m2.971 3.035h.664l1.501-2.742h.011v2.742h.488v-3.405h-.625l-1.542 2.799h-.009v-2.8h-.488zm5.274 0h.513l1.439-3.405h-.533l-.346.858h-1.668l-.346-.858h-.513l1.454 3.405m.239-.46l-.68-1.686h1.358zm2.917.46h.488v-2.976h1.424v-.43h-1.912zm5.23 0h.487v-2.976h1.425v-.43h-1.912zm4.239 0h.511l1.44-3.405h-.532l-.347.858h-1.668l-.346-.858h-.512l1.453 3.405m.24-.46l-.679-1.686h1.357zm2.844.46h.922c.707 0 1.195-.23 1.195-.86 0-.467-.273-.701-.703-.81v-.01c.464-.037.79-.34.79-.818 0-.731-.604-.907-1.297-.907h-.907v3.405m.488-1.454h.268c.473 0 .873.043.873.546 0 .405-.347.508-.628.508h-.513v-1.054m0-1.551h.366c.439 0 .834.092.834.55 0 .527-.464.6-.883.6h-.317zm4.629 3.063c1.035 0 1.64-.751 1.64-1.76 0-1.035-.601-1.762-1.64-1.762-1.04 0-1.64.727-1.64 1.762 0 1.009.606 1.76 1.64 1.76m0-3.093c.786 0 1.122.654 1.122 1.333 0 .692-.37 1.336-1.122 1.33-.751.006-1.122-.638-1.122-1.33 0-.68.337-1.333 1.122-1.333m2.971 3.035h.834c.673 0 1.321-.108 1.321-.923 0-.414-.306-.706-.702-.775v-.01c.151-.058.225-.132.332-.341l.644-1.356h-.556l-.522 1.18c-.152.332-.312.332-.57.332h-.294v-1.512h-.487v3.405m.487-1.464h.415c.464 0 .737.205.737.532 0 .307-.234.503-.683.503h-.469zm4.318 1.464h.512l1.44-3.405h-.533l-.346.858h-1.668l-.346-.858h-.512l1.453 3.405m.24-.46l-.68-1.686h1.357zm3.238.031h-1.059v.429h2.605v-.43h-1.058v-2.975h-.488zm4.064.487c1.034 0 1.64-.751 1.64-1.76 0-1.035-.6-1.762-1.64-1.762s-1.639.727-1.639 1.762c0 1.009.604 1.76 1.64 1.76m0-3.093c.784 0 1.12.654 1.12 1.333 0 .692-.37 1.336-1.12 1.33-.753.006-1.123-.638-1.123-1.33 0-.68.336-1.333 1.122-1.333m2.971 3.035h.834c.673 0 1.321-.108 1.321-.923 0-.414-.306-.706-.702-.775v-.01c.152-.058.225-.132.332-.341l.644-1.356h-.556l-.522 1.18c-.15.332-.312.332-.57.332h-.294v-1.512h-.487v3.405m.487-1.464h.416c.462 0 .736.205.736.532 0 .307-.234.503-.683.503h-.469zm4.105-.517l-1.332 1.981h.57l1.016-1.527.989 1.527h.57l-1.326-1.98v-1.426h-.487z"/></g><path d="M61.672 162.563c-3.833-1.589-10.248-9.185-13.929-18.691-.047-.117.005-.201.085-.218.14-.028.179.032.235.149 5.512 11.908 12.381 17.958 15.262 17.749 1.868-.133 2.936-2.041 2.976-5.114.002-.066.042-.17.135-.177.104-.008.171.059.179.169.31 3.989-.727 5.921-2.372 6.421a2.695 2.695 0 01-.795.114c-.534 0-1.128-.135-1.776-.402" fill="url(#c)" transform="matrix(5.60263 0 0 -5.60263 -209.691 913.033)"/><path d="M64.941 154.344c-4.029-.135-9.098-1.227-14.275-3.077-4.928-1.764-9.204-3.974-13.094-6.731-.143-.1-.172-.208-.122-.287.05-.08.19-.069.303 0 3.777 2.347 6.471 3.952 12.289 6.033 4.879 1.743 9.765 2.785 13.759 2.934 3.532.131 6.071-.462 6.789-1.585 1.026-1.602.27-3.347-2.523-5.832-.101-.086-.109-.196-.067-.251.027-.037.102-.083.26.019 4.572 2.984 4.114 5.602 3.877 6.328-.518 1.6-2.778 2.462-6.397 2.462-.259 0-.525-.004-.799-.013" fill="url(#d)" transform="matrix(5.60263 0 0 -5.60263 -209.691 913.033)"/><g clip-path="url(#e)" transform="matrix(5.60263 0 0 -5.60263 -209.691 913.033)"><path d="M78.709 126.729h1.438v-.324h-1.07v-.75h.975v-.324h-.975v-.846h1.07v-.323h-1.438zm3.733-.387c-.188.074-.29.108-.48.108-.208 0-.45-.075-.45-.343 0-.493 1.104-.379 1.104-1.225 0-.548-.424-.766-.939-.766-.18 0-.357.053-.526.107l.037.342c.125-.05.346-.125.534-.125.21 0 .503.118.503.42 0 .574-1.103.415-1.103 1.214 0 .456.36.698.823.698.17 0 .372-.029.55-.092zm1.726.063h-.798v.324h1.964v-.324h-.798v-2.243h-.368zm1.714-1.832h.413v-.411h-.413zm2.248 1.733l-.393-.338-.195.245.628.516h.327v-2.567h-.367zm1.931-1.78a.97.97 0 01.456-.107c.479 0 .71.44.718.935l-.008-.005a.756.756 0 00-.563-.234c-.497 0-.772.349-.772.809 0 .53.357.849.824.849.717 0 .864-.647.864-1.232 0-.695-.228-1.424-1.04-1.424a1.83 1.83 0 00-.53.08l.051.329m.651.89c.305 0 .478.228.478.515 0 .243-.15.54-.453.54-.308 0-.456-.264-.456-.54 0-.24.14-.514.431-.514m2.866-.672h-1.195v.302l1.037 1.681h.526v-1.68h.324v-.303h-.324v-.584h-.368v.584m0 1.682h-.007l-.803-1.38h.81zm1.855-.78h.205c.265 0 .637.093.637.42 0 .293-.236.405-.505.405a1.26 1.26 0 01-.57-.14l-.022.328c.169.062.427.113.644.113.453 0 .842-.214.842-.7 0-.323-.257-.528-.551-.584v-.008c.342-.07.574-.272.574-.635 0-.59-.504-.73-1.012-.73-.206 0-.426.053-.59.1l.024.342c.133-.066.34-.14.563-.14.279 0 .625.11.625.438 0 .383-.31.49-.64.49h-.224zm-42.361-.325h23.087v.335H53.072zm46.132 0h22.663v.335H99.204zM53.07 146.876h2.035v-8.508h3.937v-1.597H53.07zm19.58-4.193c-.595.203-1.03.319-1.74.319-.526 0-1.15-.189-1.15-.827 0-1.192 3.383-.436 3.383-3.137 0-1.743-1.554-2.441-3.136-2.441-.74 0-1.496.132-2.206.32l.115 1.597c.61-.304 1.248-.492 1.916-.492.496 0 1.28.188 1.28.913 0 1.468-3.385.466-3.385 3.166 0 1.612 1.407 2.324 2.934 2.324.914 0 1.511-.144 2.12-.276zm6.543 4.226h2.295l3.978-10.137h-2.25l-.871 2.324h-4.11l-.886-2.324h-2.106l3.95 10.137m1.118-2.033h-.028l-1.467-4.183h2.962zm5.772 2.02h1.946v-10.125h-1.946zm3.613-3.037c.754.349 1.772.566 2.601.566 2.278 0 3.222-.943 3.222-3.151v-.958c0-.755.014-1.322.029-1.874.015-.566.043-1.091.086-1.671h-1.713c-.071.394-.071.886-.086 1.119h-.03c-.449-.827-1.422-1.293-2.307-1.293-1.322 0-2.616.799-2.616 2.224 0 1.117.538 1.77 1.277 2.134.742.363 1.701.436 2.515.436h1.072c0 1.203-.536 1.61-1.683 1.61-.829 0-1.655-.318-2.309-.812l-.058 1.67m2.28-5.837c.594 0 1.06.26 1.365.667.319.42.405.959.405 1.54h-.841c-.87 0-2.164-.146-2.164-1.294 0-.64.538-.913 1.235-.913m4.734 6.228h1.816v-1.043h.028c.61.915 1.496 1.218 2.222 1.218 1.045 0 1.787-.392 2.207-1.32.45.899 1.423 1.32 2.338 1.32 1.845 0 2.367-1.262 2.367-2.933v-4.72h-1.946v4.459c0 .698 0 1.684-1.117 1.684-1.293 0-1.453-1.54-1.453-2.511v-3.632h-1.946v4.459c0 .698 0 1.684-1.117 1.684-1.292 0-1.452-1.54-1.452-2.511v-3.632H96.71zm19.844-3.735c0-2.167-1.768-3.924-4.105-3.924-2.314 0-4.106 1.757-4.106 3.924 0 2.165 1.78 3.919 4.106 3.919 2.337 0 4.105-1.754 4.105-3.92m-2.07-.035c0 1.278-.822 2.313-2.001 2.313-1.183 0-2.002-1.035-2.002-2.313 0-1.28.833-2.317 2.002-2.317 1.165 0 2.003 1.037 2 2.317m-47.127.036c0-2.167-1.768-3.924-4.104-3.924-2.316 0-4.108 1.757-4.108 3.924 0 2.165 1.783 3.919 4.108 3.919 2.336 0 4.104-1.754 4.104-3.92m-2.091-.035c0 1.278-.823 2.313-2.002 2.313-1.183 0-2.002-1.035-2.002-2.313 0-1.28.834-2.317 2.002-2.317 1.166 0 2.003 1.037 2.002 2.317m56.477 2.204c-.598.203-1.033.319-1.743.319-.524 0-1.146-.189-1.146-.827 0-1.192 3.382-.436 3.382-3.137 0-1.743-1.554-2.441-3.138-2.441-.74 0-1.495.132-2.205.32l.114 1.597c.611-.304 1.25-.492 1.918-.492.492 0 1.278.188 1.278.913 0 1.468-3.383.466-3.383 3.166 0 1.612 1.407 2.324 2.932 2.324.915 0 1.511-.144 2.121-.276z"/></g></svg>