<?xml version="1.0" encoding="iso-8859-1"?>
<!-- Uploaded to: SVG Repo, www.svgrepo.com, Generator: SVG Repo Mixer Tools -->
<svg fill="#000000" height="800px" width="800px" version="1.1" id="Layer_1" xmlns="http://www.w3.org/2000/svg" xmlns:xlink="http://www.w3.org/1999/xlink" 
	 viewBox="0 0 512 512" xml:space="preserve">
<g>
	<g>
		<path d="M443.455,290.286h0.002h0.001l63.937-36.914l-16.696-28.917l-63.937,36.914l-68.686-39.656v-79.311l63.937-36.914
			l-16.696-28.917l-63.937,36.914l-68.686-39.657V0h-33.391v73.829l-68.686,39.656L106.68,76.57l-16.696,28.917l63.938,36.915
			v79.311l-68.685,39.656l-63.938-36.915L4.604,253.371l63.938,36.914v79.311L4.604,406.512l16.695,28.917l63.803-36.837
			l68.819,39.595V512h33.391v-73.829l68.551-39.579l68.819,39.595V512h33.391v-73.829l68.686-39.656l63.937,36.915l16.696-28.917
			l-63.937-36.915V290.286z M239.304,369.598L239.304,369.598l-68.701,39.663l-68.671-39.51v-79.466l68.551-39.578l68.821,39.595
			V369.598z M187.313,221.867v-79.466l68.686-39.655l68.686,39.656v79.311l-68.7,39.664L187.313,221.867z M341.366,409.263
			l-68.671-39.511v-79.465l68.686-39.656l63.937,36.914l4.748,2.741v79.311h0.001L341.366,409.263z"/>
	</g>
</g>
</svg>